<svg width="12" height="18" viewBox="0 0 12 18" fill="none" xmlns="http://www.w3.org/2000/svg">
<path d="M11.5821 0.550385H0.417738C0.187166 0.550385 4.55382e-07 0.737387 4.55382e-07 0.968122V16.6135C-0.000325881 16.927 0.174765 17.2142 0.453474 17.3575C0.732347 17.5006 1.06784 17.4756 1.32224 17.2927L5.99992 13.9395L10.6778 17.2925C10.9323 17.4751 11.2675 17.4999 11.5462 17.3568C11.8247 17.2137 12 16.9267 12 16.6135V0.968122C12 0.737387 11.8128 0.550385 11.5821 0.550385ZM11.1644 16.6134L6.24354 13.0859C6.09799 12.9817 5.90217 12.9817 5.75678 13.0859L0.835802 16.6135V1.38586H11.1644V16.6134Z" fill="white"/>
</svg>
