<svg width="30" height="31" viewBox="0 0 30 31" fill="none" xmlns="http://www.w3.org/2000/svg">
<circle cx="15" cy="15.9987" r="14.5" fill="white" stroke="white"/>
<path d="M15.3293 18.2741L15.3292 18.2742C15.2036 18.4577 15.0808 18.4987 15.0005 18.4987H15.0003C14.9214 18.4987 14.7979 18.4575 14.6711 18.2727C14.6711 18.2727 14.6711 18.2726 14.6711 18.2726C14.671 18.2725 14.671 18.2724 14.6709 18.2724L11.6331 13.8329L11.6329 13.8325C11.5268 13.6777 11.5055 13.5726 11.5053 13.5352C11.5279 13.5232 11.5901 13.4987 11.7164 13.4987L18.2825 13.4987C18.4099 13.4987 18.4723 13.5236 18.4946 13.5356C18.4946 13.5357 18.4946 13.5357 18.4946 13.5358C18.4946 13.5742 18.4724 13.6831 18.3674 13.8363L18.3673 13.8364L15.3293 18.2741Z" fill="black" stroke="white"/>
</svg>
